<mxfile host="" modified="2020-06-02T10:18:43.388Z" agent="5.0 (Windows NT 10.0; Win64; x64) AppleWebKit/537.36 (KHTML, like Gecko) Code/1.45.1 Chrome/78.0.3904.130 Electron/7.2.4 Safari/537.36" etag="mjFXlvM4pinbf_w1ON6P" version="13.1.3">
    <diagram id="5c-fdTEUNeaK1HylNdgG" name="Page-1">
        <mxGraphModel dx="1723" dy="1162" grid="1" gridSize="10" guides="1" tooltips="1" connect="1" arrows="1" fold="1" page="1" pageScale="1" pageWidth="827" pageHeight="1169" math="0" shadow="0">
            <root>
                <mxCell id="0"/>
                <mxCell id="1" parent="0"/>
                <mxCell id="JPPl_Oky3sfPNXCLAEB9-1" style="edgeStyle=orthogonalEdgeStyle;rounded=0;orthogonalLoop=1;jettySize=auto;html=1;entryX=0.5;entryY=1;entryDx=0;entryDy=0;startArrow=classic;startFill=1;endArrow=none;endFill=0;fontSize=15;" parent="1" source="JPPl_Oky3sfPNXCLAEB9-2" target="JPPl_Oky3sfPNXCLAEB9-5" edge="1">
                    <mxGeometry relative="1" as="geometry"/>
                </mxCell>
                <mxCell id="JPPl_Oky3sfPNXCLAEB9-2" value="Create Student" style="rounded=1;whiteSpace=wrap;html=1;fillColor=#fff2cc;strokeColor=#d6b656;fontSize=15;" parent="1" vertex="1">
                    <mxGeometry x="334" y="480" width="120" height="60" as="geometry"/>
                </mxCell>
                <mxCell id="JPPl_Oky3sfPNXCLAEB9-3" style="edgeStyle=orthogonalEdgeStyle;rounded=0;orthogonalLoop=1;jettySize=auto;html=1;entryX=0.5;entryY=1;entryDx=0;entryDy=0;startArrow=classic;startFill=1;endArrow=none;endFill=0;fontSize=15;" parent="1" source="JPPl_Oky3sfPNXCLAEB9-5" target="JPPl_Oky3sfPNXCLAEB9-7" edge="1">
                    <mxGeometry relative="1" as="geometry"/>
                </mxCell>
                <mxCell id="JPPl_Oky3sfPNXCLAEB9-4" style="edgeStyle=orthogonalEdgeStyle;rounded=0;orthogonalLoop=1;jettySize=auto;html=1;entryX=0.5;entryY=1;entryDx=0;entryDy=0;startArrow=classic;startFill=1;endArrow=none;endFill=0;fontSize=15;" parent="1" source="JPPl_Oky3sfPNXCLAEB9-5" target="JPPl_Oky3sfPNXCLAEB9-9" edge="1">
                    <mxGeometry relative="1" as="geometry"/>
                </mxCell>
                <mxCell id="JPPl_Oky3sfPNXCLAEB9-5" value="Delete Subject" style="rounded=1;whiteSpace=wrap;html=1;fillColor=#dae8fc;strokeColor=#6c8ebf;fontSize=15;" parent="1" vertex="1">
                    <mxGeometry x="334" y="390" width="120" height="60" as="geometry"/>
                </mxCell>
                <mxCell id="JPPl_Oky3sfPNXCLAEB9-7" value="Create Teacher" style="rounded=1;whiteSpace=wrap;html=1;fillColor=#dae8fc;strokeColor=#6c8ebf;fontSize=15;" parent="1" vertex="1">
                    <mxGeometry x="234" y="280" width="120" height="60" as="geometry"/>
                </mxCell>
                <mxCell id="JPPl_Oky3sfPNXCLAEB9-46" style="edgeStyle=orthogonalEdgeStyle;orthogonalLoop=1;jettySize=auto;html=1;entryX=1;entryY=0.5;entryDx=0;entryDy=0;curved=1;fontSize=15;" parent="1" source="JPPl_Oky3sfPNXCLAEB9-9" target="JPPl_Oky3sfPNXCLAEB9-36" edge="1">
                    <mxGeometry relative="1" as="geometry">
                        <Array as="points">
                            <mxPoint x="410" y="310"/>
                            <mxPoint x="410" y="210"/>
                        </Array>
                    </mxGeometry>
                </mxCell>
                <mxCell id="JPPl_Oky3sfPNXCLAEB9-9" value="Update Student" style="rounded=1;whiteSpace=wrap;html=1;fillColor=#fff2cc;strokeColor=#d6b656;fontSize=15;" parent="1" vertex="1">
                    <mxGeometry x="434" y="280" width="120" height="60" as="geometry"/>
                </mxCell>
                <mxCell id="JPPl_Oky3sfPNXCLAEB9-10" value="" style="endArrow=none;dashed=1;html=1;" parent="1" edge="1">
                    <mxGeometry width="50" height="50" relative="1" as="geometry">
                        <mxPoint x="110" y="560" as="sourcePoint"/>
                        <mxPoint x="110" y="70" as="targetPoint"/>
                    </mxGeometry>
                </mxCell>
                <mxCell id="JPPl_Oky3sfPNXCLAEB9-11" value="&lt;font style=&quot;font-size: 17px;&quot;&gt;Time 1&lt;/font&gt;" style="text;html=1;strokeColor=none;fillColor=none;align=center;verticalAlign=middle;whiteSpace=wrap;rounded=0;fontSize=17;" parent="1" vertex="1">
                    <mxGeometry x="40" y="500" width="70" height="20" as="geometry"/>
                </mxCell>
                <mxCell id="JPPl_Oky3sfPNXCLAEB9-12" value="&lt;font style=&quot;font-size: 17px;&quot;&gt;Time 2&lt;/font&gt;" style="text;html=1;strokeColor=none;fillColor=none;align=center;verticalAlign=middle;whiteSpace=wrap;rounded=0;fontSize=17;" parent="1" vertex="1">
                    <mxGeometry x="40" y="410" width="70" height="20" as="geometry"/>
                </mxCell>
                <mxCell id="JPPl_Oky3sfPNXCLAEB9-13" value="&lt;font style=&quot;font-size: 17px;&quot;&gt;Time 3&lt;/font&gt;" style="text;html=1;strokeColor=none;fillColor=none;align=center;verticalAlign=middle;whiteSpace=wrap;rounded=0;fontSize=17;" parent="1" vertex="1">
                    <mxGeometry x="40" y="300" width="70" height="20" as="geometry"/>
                </mxCell>
                <mxCell id="JPPl_Oky3sfPNXCLAEB9-14" value="Node1 inserts into the table Student" style="text;html=1;strokeColor=none;fillColor=none;align=left;verticalAlign=middle;whiteSpace=wrap;rounded=0;fontSize=15;" parent="1" vertex="1">
                    <mxGeometry x="214" y="482" width="120" height="55" as="geometry"/>
                </mxCell>
                <mxCell id="JPPl_Oky3sfPNXCLAEB9-15" value="Node2 removes record from table Subject" style="text;html=1;strokeColor=none;fillColor=none;align=left;verticalAlign=middle;whiteSpace=wrap;rounded=0;fontSize=15;" parent="1" vertex="1">
                    <mxGeometry x="214" y="390" width="120" height="55" as="geometry"/>
                </mxCell>
                <mxCell id="JPPl_Oky3sfPNXCLAEB9-17" value="&lt;font style=&quot;font-size: 17px;&quot;&gt;Time 4&lt;/font&gt;" style="text;html=1;strokeColor=none;fillColor=none;align=center;verticalAlign=middle;whiteSpace=wrap;rounded=0;fontSize=17;" parent="1" vertex="1">
                    <mxGeometry x="40" y="200" width="70" height="20" as="geometry"/>
                </mxCell>
                <mxCell id="JPPl_Oky3sfPNXCLAEB9-31" style="edgeStyle=orthogonalEdgeStyle;rounded=0;orthogonalLoop=1;jettySize=auto;html=1;entryX=0.5;entryY=0;entryDx=0;entryDy=0;fontSize=15;" parent="1" source="JPPl_Oky3sfPNXCLAEB9-24" target="JPPl_Oky3sfPNXCLAEB9-9" edge="1">
                    <mxGeometry relative="1" as="geometry"/>
                </mxCell>
                <mxCell id="JPPl_Oky3sfPNXCLAEB9-47" style="edgeStyle=orthogonalEdgeStyle;curved=1;orthogonalLoop=1;jettySize=auto;html=1;entryX=1;entryY=0.5;entryDx=0;entryDy=0;fontSize=15;" parent="1" source="JPPl_Oky3sfPNXCLAEB9-24" target="JPPl_Oky3sfPNXCLAEB9-36" edge="1">
                    <mxGeometry relative="1" as="geometry"/>
                </mxCell>
                <mxCell id="JPPl_Oky3sfPNXCLAEB9-24" value="Create Subject" style="rounded=1;whiteSpace=wrap;html=1;fillColor=#fff2cc;strokeColor=#d6b656;fontSize=15;" parent="1" vertex="1">
                    <mxGeometry x="434" y="180" width="120" height="60" as="geometry"/>
                </mxCell>
                <mxCell id="JPPl_Oky3sfPNXCLAEB9-29" value="03c7..." style="text;whiteSpace=wrap;html=1;align=center;labelBackgroundColor=#ffffff;fontSize=15;" parent="1" vertex="1">
                    <mxGeometry x="310" y="537" width="230" height="30" as="geometry"/>
                </mxCell>
                <mxCell id="JPPl_Oky3sfPNXCLAEB9-30" value="627fc..." style="text;whiteSpace=wrap;html=1;align=center;labelBackgroundColor=#ffffff;fontSize=15;" parent="1" vertex="1">
                    <mxGeometry x="250" y="449" width="230" height="30" as="geometry"/>
                </mxCell>
                <mxCell id="JPPl_Oky3sfPNXCLAEB9-32" value="&lt;div style=&quot;font-size: 15px;&quot;&gt;&lt;span style=&quot;font-size: 15px;&quot;&gt;bdd5a...&lt;/span&gt;&lt;/div&gt;" style="text;whiteSpace=wrap;html=1;align=center;labelBackgroundColor=#ffffff;fontSize=15;" parent="1" vertex="1">
                    <mxGeometry x="414" y="340" width="220" height="30" as="geometry"/>
                </mxCell>
                <mxCell id="JPPl_Oky3sfPNXCLAEB9-33" value="b9ac0..." style="text;whiteSpace=wrap;html=1;align=center;labelBackgroundColor=#ffffff;fontSize=15;" parent="1" vertex="1">
                    <mxGeometry x="404" y="240" width="240" height="30" as="geometry"/>
                </mxCell>
                <mxCell id="JPPl_Oky3sfPNXCLAEB9-34" value="e9977..." style="text;whiteSpace=wrap;html=1;align=center;glass=0;labelBackgroundColor=none;fontSize=15;" parent="1" vertex="1">
                    <mxGeometry x="150" y="337.5" width="240" height="30" as="geometry"/>
                </mxCell>
                <mxCell id="JPPl_Oky3sfPNXCLAEB9-35" value="" style="html=1;verticalLabelPosition=bottom;labelBackgroundColor=#ffffff;verticalAlign=top;shadow=0;dashed=0;strokeWidth=2;shape=mxgraph.ios7.misc.more;strokeColor=#000000;glass=0;align=center;fontSize=15;" parent="1" vertex="1">
                    <mxGeometry x="378.5" y="290" width="31" height="40" as="geometry"/>
                </mxCell>
                <mxCell id="JPPl_Oky3sfPNXCLAEB9-58" style="edgeStyle=orthogonalEdgeStyle;curved=1;orthogonalLoop=1;jettySize=auto;html=1;entryX=0.5;entryY=0;entryDx=0;entryDy=0;fontSize=15;" parent="1" source="JPPl_Oky3sfPNXCLAEB9-36" target="JPPl_Oky3sfPNXCLAEB9-7" edge="1">
                    <mxGeometry relative="1" as="geometry"/>
                </mxCell>
                <mxCell id="JPPl_Oky3sfPNXCLAEB9-36" value="Update Student&lt;br style=&quot;font-size: 15px;&quot;&gt;Create Subject" style="rounded=1;whiteSpace=wrap;html=1;fillColor=#fff2cc;strokeColor=#d6b656;fontSize=15;" parent="1" vertex="1">
                    <mxGeometry x="234" y="180" width="120" height="60" as="geometry"/>
                </mxCell>
                <mxCell id="JPPl_Oky3sfPNXCLAEB9-40" value="cd735..." style="text;whiteSpace=wrap;html=1;labelBorderColor=none;align=center;labelBackgroundColor=#ffffff;fontSize=15;" parent="1" vertex="1">
                    <mxGeometry x="294" y="240" width="60" height="20" as="geometry"/>
                </mxCell>
                <mxCell id="JPPl_Oky3sfPNXCLAEB9-44" value="" style="shape=image;html=1;verticalAlign=top;verticalLabelPosition=bottom;labelBackgroundColor=#ffffff;imageAspect=0;aspect=fixed;image=https://cdn0.iconfinder.com/data/icons/small-n-flat/24/678069-sign-error-128.png;glass=0;strokeColor=#000000;align=center;fontSize=15;" parent="1" vertex="1">
                    <mxGeometry x="530" y="162" width="38" height="38" as="geometry"/>
                </mxCell>
                <mxCell id="JPPl_Oky3sfPNXCLAEB9-45" value="" style="shape=image;html=1;verticalAlign=top;verticalLabelPosition=bottom;labelBackgroundColor=#ffffff;imageAspect=0;aspect=fixed;image=https://cdn0.iconfinder.com/data/icons/small-n-flat/24/678069-sign-error-128.png;glass=0;strokeColor=#000000;align=center;fontSize=15;" parent="1" vertex="1">
                    <mxGeometry x="530" y="270" width="38" height="38" as="geometry"/>
                </mxCell>
                <mxCell id="JPPl_Oky3sfPNXCLAEB9-48" value="&lt;font style=&quot;font-size: 17px;&quot;&gt;Time 5&lt;/font&gt;" style="text;html=1;strokeColor=none;fillColor=none;align=center;verticalAlign=middle;whiteSpace=wrap;rounded=0;fontSize=17;" parent="1" vertex="1">
                    <mxGeometry x="40" y="110" width="70" height="20" as="geometry"/>
                </mxCell>
                <mxCell id="JPPl_Oky3sfPNXCLAEB9-60" style="edgeStyle=orthogonalEdgeStyle;curved=1;orthogonalLoop=1;jettySize=auto;html=1;entryX=0.5;entryY=0;entryDx=0;entryDy=0;fontSize=15;" parent="1" source="JPPl_Oky3sfPNXCLAEB9-49" target="JPPl_Oky3sfPNXCLAEB9-36" edge="1">
                    <mxGeometry relative="1" as="geometry"/>
                </mxCell>
                <mxCell id="JPPl_Oky3sfPNXCLAEB9-49" value="Update Teacher" style="rounded=1;whiteSpace=wrap;html=1;fillColor=#dae8fc;strokeColor=#6c8ebf;fontSize=15;" parent="1" vertex="1">
                    <mxGeometry x="234" y="90" width="120" height="60" as="geometry"/>
                </mxCell>
                <mxCell id="JPPl_Oky3sfPNXCLAEB9-51" value="bbd7a..." style="text;whiteSpace=wrap;html=1;align=center;labelBackgroundColor=none;fontSize=15;" parent="1" vertex="1">
                    <mxGeometry x="240" y="150" width="60" height="20" as="geometry"/>
                </mxCell>
                <mxCell id="JPPl_Oky3sfPNXCLAEB9-53" value="Both nodes add transactions and publish new version of DB. Node2 wins this time, because his transaction has bigger hash." style="text;html=1;strokeColor=none;fillColor=none;align=left;verticalAlign=middle;whiteSpace=wrap;rounded=0;fontSize=15;" parent="1" vertex="1">
                    <mxGeometry x="570" y="277.5" width="130" height="117.5" as="geometry"/>
                </mxCell>
                <mxCell id="JPPl_Oky3sfPNXCLAEB9-54" value="" style="ellipse;whiteSpace=wrap;html=1;glass=0;labelBackgroundColor=#ffffff;strokeColor=#d6b656;align=center;fillColor=#fff2cc;fontSize=18;" parent="1" vertex="1">
                    <mxGeometry x="254" y="565" width="26" height="25" as="geometry"/>
                </mxCell>
                <mxCell id="JPPl_Oky3sfPNXCLAEB9-55" value="node1" style="text;html=1;strokeColor=none;fillColor=none;align=center;verticalAlign=middle;whiteSpace=wrap;rounded=0;glass=0;labelBackgroundColor=#ffffff;fontSize=18;" parent="1" vertex="1">
                    <mxGeometry x="290" y="570" width="40" height="20" as="geometry"/>
                </mxCell>
                <mxCell id="JPPl_Oky3sfPNXCLAEB9-56" value="" style="ellipse;whiteSpace=wrap;html=1;glass=0;labelBackgroundColor=#ffffff;strokeColor=#6c8ebf;align=center;fillColor=#dae8fc;fontSize=18;" parent="1" vertex="1">
                    <mxGeometry x="474" y="565" width="26" height="25" as="geometry"/>
                </mxCell>
                <mxCell id="JPPl_Oky3sfPNXCLAEB9-57" value="node2" style="text;html=1;strokeColor=none;fillColor=none;align=center;verticalAlign=middle;whiteSpace=wrap;rounded=0;glass=0;labelBackgroundColor=#ffffff;fontSize=18;" parent="1" vertex="1">
                    <mxGeometry x="510" y="570" width="40" height="20" as="geometry"/>
                </mxCell>
                <mxCell id="JPPl_Oky3sfPNXCLAEB9-61" value="Node1 still does not know about e9977 version of database so he publish new version based on bdd5a" style="text;html=1;strokeColor=none;fillColor=none;align=left;verticalAlign=middle;whiteSpace=wrap;rounded=0;fontSize=15;" parent="1" vertex="1">
                    <mxGeometry x="570" y="165" width="150" height="55" as="geometry"/>
                </mxCell>
                <mxCell id="JPPl_Oky3sfPNXCLAEB9-62" value="Node1 finally finds out that in time 3 there was transaction with bigger hash. He sync his DB and than apply invalid transactions again.&amp;nbsp;" style="text;html=1;strokeColor=none;fillColor=none;align=left;verticalAlign=middle;whiteSpace=wrap;rounded=0;glass=0;labelBackgroundColor=#ffffff;fontSize=15;" parent="1" vertex="1">
                    <mxGeometry x="120" y="162" width="110" height="130" as="geometry"/>
                </mxCell>
                <mxCell id="JPPl_Oky3sfPNXCLAEB9-63" value="Both nodes are now synced.Node2 perform another transaction normally." style="text;html=1;strokeColor=none;fillColor=none;align=left;verticalAlign=middle;whiteSpace=wrap;rounded=0;glass=0;labelBackgroundColor=#ffffff;fontSize=15;" parent="1" vertex="1">
                    <mxGeometry x="360" y="80" width="190" height="80" as="geometry"/>
                </mxCell>
            </root>
        </mxGraphModel>
    </diagram>
</mxfile>